# Blender v2.83.1 OBJ File: 'TT,9,07.blend'
# www.blender.org
mtllib Rear_sight_2.mtl
v -13.810783 1.607792 -1.792300
v -13.759374 2.004986 0.933771
v -13.810783 2.007098 0.938207
v -13.810783 2.326491 0.684508
v -13.759374 2.320653 0.680391
v -13.810783 2.473082 0.281698
v -13.759374 2.472430 0.266399
v -13.759374 2.474159 -1.022726
v -13.810783 2.473955 -1.041374
v -13.759374 2.315684 -1.441198
v -13.810783 2.319991 -1.444217
v -13.759374 2.004747 -1.696613
v -13.810783 2.006977 -1.701173
v -13.810783 2.526195 -0.159100
v -13.759374 2.526195 -0.159100
v -13.810785 0.360391 0.980130
v -13.759374 0.360391 0.980130
v -13.810785 0.376096 -0.373705
v -13.759374 0.376097 -0.366012
v -13.810783 2.526195 -0.603991
v -13.759374 2.526195 -0.603991
v -13.810785 0.360391 -1.743222
v -13.759374 0.360391 -1.743222
v -13.759374 2.526195 -0.381546
v -13.810783 2.526195 -0.381546
v -13.759374 1.607411 -1.788080
v -13.810783 1.607830 1.029635
v -13.759374 1.607487 1.025833
vt 0.000000 0.000000
vt 0.000000 0.000000
vt 0.000000 0.000000
vt 0.000000 0.000000
vt 0.000000 0.000000
vt 0.000000 0.000000
vt 0.000000 0.000000
vt 0.000000 0.000000
vt 0.000000 0.000000
vt 0.000000 0.000000
vt 0.000000 0.000000
vt 0.000000 0.000000
vt 0.000000 0.000000
vt 0.000000 0.000000
vt 0.000000 0.000000
vt 0.000000 0.000000
vt 0.000000 0.000000
vt 0.000000 0.000000
vt 0.000000 0.000000
vt 0.000000 0.000000
vt 0.000000 0.000000
vt 0.000000 0.000000
vt 0.000000 0.000000
vt 0.000000 0.000000
vt 0.000000 0.000000
vt 0.000000 0.000000
vt 0.000000 0.000000
vt 0.000000 0.000000
vn 1.0000 0.0000 0.0000
vn -1.0000 0.0000 -0.0000
usemtl Material.010
s off
f 24/1/1 15/2/1 7/3/1 5/4/1 2/5/1 28/6/1 17/7/1 19/8/1 23/9/1 26/10/1 12/11/1 10/12/1 8/13/1 21/14/1
f 25/15/2 20/16/2 9/17/2 11/18/2 13/19/2 1/20/2 22/21/2 18/22/2 16/23/2 27/24/2 3/25/2 4/26/2 6/27/2 14/28/2
