# Blender v2.83.1 OBJ File: ''
# www.blender.org
mtllib rear_sight3.mtl
v -13.810783 2.006977 -1.701173
v -13.810783 2.319991 -1.444217
v -13.810783 2.473082 0.281698
v -13.810783 2.326491 0.684508
v -13.810783 2.473955 -1.041374
v -13.810785 0.376096 -0.373705
v -13.810785 0.360391 0.980130
v -13.810783 2.526195 -0.159100
v -13.810783 2.526195 -0.603991
v -13.810783 1.607792 -1.792300
v -13.810785 0.360391 -1.743222
v -13.810783 2.526195 -0.381546
v -13.810783 2.007098 0.938207
v -13.810783 1.607830 1.029635
v -13.800783 2.006977 -1.701173
v -13.800783 2.319991 -1.444217
v -13.800783 2.473082 0.281698
v -13.800783 2.326491 0.684508
v -13.800783 2.473955 -1.041374
v -13.800786 0.376096 -0.373705
v -13.800785 0.360391 0.980130
v -13.800784 2.526195 -0.159100
v -13.800783 2.526195 -0.603991
v -13.800783 1.607792 -1.792300
v -13.800785 0.360391 -1.743222
v -13.800783 2.526195 -0.381546
v -13.800783 2.007098 0.938207
v -13.800783 1.607830 1.029635
vt 0.389990 0.200836
vt 0.401149 0.201246
vt 0.422994 0.204672
vt 0.442919 0.213138
vt 0.455232 0.229313
vt 0.459069 0.249506
vt 0.454310 0.311991
vt 0.385637 0.308682
vt 0.317693 0.306976
vt 0.317507 0.244307
vt 0.322828 0.224447
vt 0.336143 0.208891
vt 0.356620 0.202279
vt 0.378831 0.200427
vt 0.389732 0.202525
vt 0.400523 0.202887
vt 0.421820 0.206182
vt 0.441122 0.213950
vt 0.452909 0.229858
vt 0.456693 0.249376
vt 0.452259 0.309810
vt 0.386608 0.306842
vt 0.320146 0.305372
vt 0.319798 0.244779
vt 0.324869 0.225562
vt 0.337844 0.210797
vt 0.357637 0.203984
vt 0.378941 0.202163
vt 0.442919 0.213138
vt 0.455232 0.229313
vt 0.336143 0.208891
vt 0.356620 0.202279
vt 0.422994 0.204672
vt 0.385637 0.308682
vt 0.317693 0.306976
vt 0.378831 0.200427
vt 0.401149 0.201246
vt 0.459069 0.249506
vt 0.454310 0.311991
vt 0.389990 0.200836
vt 0.322828 0.224447
vt 0.317507 0.244307
vn -1.0000 0.0000 -0.0000
vn 1.0000 -0.0000 0.0000
vn 0.0000 0.6345 -0.7729
vn 0.0000 0.9397 0.3420
vn 0.0000 0.9341 -0.3570
vn 0.0000 -0.9999 -0.0116
vn 0.0000 0.9928 0.1196
vn 0.0000 0.9929 -0.1186
vn 0.0000 -0.0393 -0.9992
vn 0.0000 1.0000 0.0000
vn 0.0000 0.6220 0.7830
vn 0.0000 0.2225 -0.9749
vn 0.0000 0.2232 0.9748
vn 0.0000 -0.0397 0.9992
vn 0.0000 -0.9999 0.0115
usemtl Material.012
s off
f 12/1/1 9/2/1 5/3/1 2/4/1 1/5/1 10/6/1 11/7/1 6/8/1 7/9/1 14/10/1 13/11/1 4/12/1 3/13/1 8/14/1
f 26/15/2 22/16/2 17/17/2 18/18/2 27/19/2 28/20/2 21/21/2 20/22/2 25/23/2 24/24/2 15/25/2 16/26/2 19/27/2 23/28/2
f 1/5/3 2/4/3 16/29/3 15/30/3
f 3/13/4 4/12/4 18/31/4 17/32/4
f 2/4/5 5/3/5 19/33/5 16/29/5
f 7/9/6 6/8/6 20/34/6 21/35/6
f 8/14/7 3/13/7 17/32/7 22/36/7
f 5/3/8 9/2/8 23/37/8 19/33/8
f 11/7/9 10/6/9 24/38/9 25/39/9
f 12/1/10 8/14/10 22/36/10 26/40/10
f 4/12/11 13/11/11 27/41/11 18/31/11
f 10/6/12 1/5/12 15/30/12 24/38/12
f 13/11/13 14/10/13 28/42/13 27/41/13
f 14/10/14 7/9/14 21/35/14 28/42/14
f 6/8/15 11/7/15 25/39/15 20/34/15
f 9/2/10 12/1/10 26/40/10 23/37/10
