# This file uses millimeters as units for non-parametric coordinates.

g default
v 1.467223 0.070486 -0.311868
v 1.370320 0.070486 -0.610106
v 1.213527 0.070486 -0.881679
v 1.003698 0.070486 -1.114718
v 0.750001 0.070486 -1.299039
v 0.463526 0.070486 -1.426586
v 0.156793 0.070486 -1.491784
v -0.156793 0.070486 -1.491784
v -0.463526 0.070486 -1.426586
v -0.750001 0.070486 -1.299039
v -1.003696 0.070486 -1.114718
v -1.213527 0.070486 -0.881679
v -1.370319 0.070486 -0.610106
v -1.467223 0.070486 -0.311868
v -1.500001 0.070486 -0.000000
v -1.467222 0.070486 0.311868
v -1.370319 0.070486 0.610105
v -1.213526 0.070486 0.881678
v -1.003696 0.070486 1.114718
v -0.750001 0.070486 1.299039
v -0.463526 0.070486 1.426586
v -0.156793 0.070486 1.491783
v 0.156793 0.070486 1.491783
v 0.463526 0.070486 1.426585
v 0.750000 0.070486 1.299039
v 1.003696 0.070486 1.114718
v 1.213526 0.070486 0.881678
v 1.370318 0.070486 0.610105
v 1.467221 0.070486 0.311868
v 1.500000 0.070486 0.000000
v 0.000000 0.070471 0.000000
v 1.380165 0.284197 -0.293363
v 1.169987 0.372713 -0.248689
v 1.289011 0.284197 -0.573905
v 1.092715 0.372713 -0.486508
v 1.141522 0.284197 -0.829364
v 0.967686 0.372713 -0.703065
v 0.944142 0.284197 -1.048576
v 0.800364 0.372713 -0.888894
v 0.705499 0.284197 -1.221960
v 0.598063 0.372713 -1.035874
v 0.436023 0.284197 -1.341939
v 0.369623 0.372713 -1.137583
v 0.147490 0.284197 -1.403268
v 0.125029 0.372713 -1.189573
v -0.147489 0.284197 -1.403268
v -0.125029 0.372713 -1.189573
v -0.436022 0.284197 -1.341939
v -0.369623 0.372713 -1.137583
v -0.705499 0.284197 -1.221960
v -0.598062 0.372713 -1.035874
v -0.944142 0.284197 -1.048576
v -0.800363 0.372713 -0.888894
v -1.141521 0.284197 -0.829364
v -0.967685 0.372713 -0.703065
v -1.289010 0.284197 -0.573905
v -1.092714 0.372713 -0.486508
v -1.380164 0.284197 -0.293363
v -1.169986 0.372713 -0.248688
v -1.410998 0.284197 -0.000000
v -1.196125 0.372713 -0.000000
v -1.380164 0.284197 0.293363
v -1.169986 0.372713 0.248688
v -1.289010 0.284197 0.573904
v -1.092714 0.372713 0.486507
v -1.141521 0.284197 0.829363
v -0.967685 0.372713 0.703064
v -0.944142 0.284197 1.048575
v -0.800363 0.372713 0.888894
v -0.705499 0.284197 1.221960
v -0.598062 0.372713 1.035874
v -0.436022 0.284197 1.341938
v -0.369623 0.372713 1.137582
v -0.147489 0.284197 1.403268
v -0.125029 0.372713 1.189572
v 0.147489 0.284197 1.403268
v 0.125029 0.372713 1.189572
v 0.436022 0.284197 1.341938
v 0.369622 0.372713 1.137581
v 0.705499 0.284197 1.221960
v 0.598062 0.372713 1.035874
v 0.944141 0.284197 1.048575
v 0.800363 0.372713 0.888894
v 1.141521 0.284197 0.829363
v 0.967684 0.372713 0.703064
v 1.289010 0.284197 0.573904
v 1.092713 0.372713 0.486507
v 1.380163 0.284197 0.293363
v 1.169986 0.372713 0.248688
v 1.410997 0.284197 -0.000000
v 1.196124 0.372713 -0.000001
v 0.025782 0.372713 -0.011478
v 0.027603 0.372713 -0.005867
v 0.028223 0.372713 -0.000000
v 0.027603 0.372713 0.005867
v 0.025782 0.372713 0.011477
v 0.022836 0.372713 0.016588
v 0.018884 0.372713 0.020973
v 0.014109 0.372713 0.024443
v 0.008721 0.372713 0.026838
v 0.002950 0.372713 0.028070
v -0.002950 0.372713 0.028070
v -0.008721 0.372713 0.026838
v -0.014110 0.372713 0.024443
v -0.018884 0.372713 0.020973
v -0.022837 0.372713 0.016588
v -0.025782 0.372713 0.011477
v -0.027603 0.372713 0.005867
v -0.028223 0.372713 -0.000000
v -0.027603 0.372713 -0.005867
v -0.025782 0.372713 -0.011478
v -0.022837 0.372713 -0.016589
v -0.018884 0.372713 -0.020973
v -0.014110 0.372713 -0.024443
v -0.008721 0.372713 -0.026838
v -0.002950 0.372713 -0.028070
v 0.002950 0.372713 -0.028070
v 0.008721 0.372713 -0.026838
v 0.014109 0.372713 -0.024443
v 0.018884 0.372713 -0.020973
v 0.022836 0.372713 -0.016589
v 0.010768 0.432636 -0.004670
v 0.000277 0.432636 -0.000000
v 0.011761 0.432636 -0.000000
v 0.010768 0.432636 0.004670
v 0.007961 0.432636 0.008534
v 0.003826 0.432636 0.010920
v -0.000923 0.432636 0.011422
v -0.005464 0.432636 0.009946
v -0.009015 0.432636 0.006750
v -0.010955 0.432636 0.002387
v -0.010955 0.432636 -0.002388
v -0.009015 0.432636 -0.006750
v -0.005464 0.432636 -0.009946
v -0.000923 0.432636 -0.011422
v 0.003826 0.432636 -0.010921
v 0.007961 0.432636 -0.008534
vt 0.257892 0.252271
vt 0.463959 0.128206
vt 0.485249 0.173761
vt 0.433662 0.088074
vt 0.395681 0.055118
vt 0.351681 0.030777
vt 0.303578 0.016119
vt 0.253483 0.011780
vt 0.203577 0.017952
vt 0.156047 0.034365
vt 0.112967 0.060302
vt 0.076220 0.094628
vt 0.047415 0.135845
vt 0.027808 0.182150
vt 0.018257 0.231519
vt 0.019179 0.281796
vt 0.030534 0.330782
vt 0.051824 0.376336
vt 0.082122 0.416469
vt 0.120102 0.449425
vt 0.164104 0.473766
vt 0.212205 0.488424
vt 0.262301 0.492763
vt 0.312205 0.486591
vt 0.359736 0.470178
vt 0.402818 0.444241
vt 0.439564 0.409915
vt 0.468369 0.368698
vt 0.487976 0.322394
vt 0.497527 0.273025
vt 0.496604 0.222747
vt 0.480808 0.509305
vt 0.526678 0.527660
vt 0.419024 0.731765
vt 0.417943 0.731333
vt 0.567733 0.555151
vt 0.419993 0.732412
vt 0.602170 0.590578
vt 0.420805 0.733250
vt 0.628492 0.632390
vt 0.421428 0.734237
vt 0.645544 0.678760
vt 0.421830 0.735330
vt 0.652582 0.727663
vt 0.421995 0.736484
vt 0.649298 0.776961
vt 0.421918 0.737648
vt 0.635840 0.824499
vt 0.421601 0.738769
vt 0.612790 0.868199
vt 0.421058 0.739800
vt 0.581159 0.906152
vt 0.420311 0.740695
vt 0.542328 0.936700
vt 0.419394 0.741416
vt 0.497993 0.958505
vt 0.418349 0.741931
vt 0.450093 0.970617
vt 0.417220 0.742216
vt 0.400722 0.972506
vt 0.416054 0.742261
vt 0.352038 0.964089
vt 0.414904 0.742061
vt 0.306169 0.945734
vt 0.413823 0.741629
vt 0.265114 0.918243
vt 0.412854 0.740982
vt 0.230677 0.882816
vt 0.412042 0.740144
vt 0.204355 0.841005
vt 0.411419 0.739157
vt 0.187303 0.794634
vt 0.411017 0.738064
vt 0.180265 0.745732
vt 0.410852 0.736910
vt 0.183549 0.696433
vt 0.410928 0.735747
vt 0.197007 0.648895
vt 0.411246 0.734625
vt 0.220056 0.605196
vt 0.411789 0.733594
vt 0.251688 0.567243
vt 0.412536 0.732699
vt 0.290520 0.536694
vt 0.413453 0.731978
vt 0.334854 0.514889
vt 0.414498 0.731463
vt 0.382754 0.502777
vt 0.415627 0.731178
vt 0.432125 0.500888
vt 0.416793 0.731134
vt 0.782204 0.125599
vt 0.782204 0.164439
vt 0.782204 0.088111
vt 0.863134 0.749895
vt 0.863134 0.712532
vt 0.863134 0.675901
vt 0.863134 0.637427
vt 0.863134 0.598135
vt 0.863134 0.558856
vt 0.863134 0.520830
vt 0.863134 0.484316
vt 0.863134 0.447764
vt 0.863134 0.395479
vt 0.863134 0.352987
vt 0.863134 0.298899
vt 0.782204 0.756969
vt 0.782204 0.720857
vt 0.782204 0.683142
vt 0.782204 0.644093
vt 0.782204 0.604794
vt 0.782204 0.566309
vt 0.782204 0.529118
vt 0.782204 0.492547
vt 0.782204 0.445865
vt 0.782204 0.405610
vt 0.782204 0.365239
vt 0.782204 0.317449
vt 0.782204 0.280125
vt 0.782204 0.242475
vt 0.782204 0.203755
vt 0.734338 0.798945
vt 0.736000 0.782739
vt 0.735491 0.798726
vt 0.736614 0.798381
vt 0.737692 0.797913
vt 0.723664 0.793243
vt 0.724239 0.794268
vt 0.724925 0.795221
vt 0.725716 0.796091
vt 0.726599 0.796864
vt 0.727566 0.797531
vt 0.728602 0.798083
vt 0.729696 0.798514
vt 0.730832 0.798818
vt 0.731993 0.798991
vt 0.733167 0.799033
vt 0.814885 0.164439
vt 0.814885 0.203755
vt 0.814885 0.242475
vt 0.814885 0.280125
vt 0.814885 0.317450
vt 0.814885 0.365239
vt 0.814885 0.405610
vt 0.814885 0.445865
vt 0.814885 0.492547
vt 0.814885 0.529118
vt 0.814885 0.566309
vt 0.814885 0.604794
vt 0.814885 0.644093
vt 0.814885 0.683142
vt 0.814885 0.720857
vt 0.814885 0.756969
vt 0.895814 0.298899
vt 0.895814 0.352986
vt 0.895814 0.395479
vt 0.895814 0.447763
vt 0.895814 0.484316
vt 0.895814 0.520830
vt 0.895814 0.558854
vt 0.895814 0.598134
vt 0.895814 0.637427
vt 0.895814 0.675901
vt 0.895814 0.712531
vt 0.782204 0.049413
vt 0.752266 0.049413
vt 0.833196 0.749895
vt 0.895814 0.749895
vt 0.814885 0.049413
vt 0.814885 0.088111
vt 0.814885 0.125599
vt 0.752266 0.164439
vt 0.752266 0.125599
vt 0.752266 0.203755
vt 0.752266 0.242475
vt 0.752266 0.280125
vt 0.752266 0.317450
vt 0.752266 0.365239
vt 0.752266 0.405610
vt 0.752266 0.445865
vt 0.752266 0.492547
vt 0.752266 0.529118
vt 0.752266 0.566309
vt 0.752266 0.604794
vt 0.752266 0.644093
vt 0.752266 0.683142
vt 0.752266 0.720857
vt 0.833196 0.262640
vt 0.833196 0.298899
vt 0.833196 0.352986
vt 0.833196 0.395479
vt 0.833196 0.447764
vt 0.833196 0.484316
vt 0.833196 0.520831
vt 0.833196 0.558856
vt 0.833196 0.598136
vt 0.833196 0.637426
vt 0.833196 0.675899
vt 0.833196 0.712532
vt 0.752266 0.088111
vt 0.737747 0.813874
vt 0.739165 0.813565
vt 0.740562 0.813177
vt 0.741939 0.812713
vt 0.743283 0.812173
vt 0.744600 0.811557
vt 0.745879 0.810869
vt 0.709948 0.800022
vt 0.710621 0.801308
vt 0.711367 0.802553
vt 0.712182 0.803755
vt 0.713062 0.804907
vt 0.714009 0.806009
vt 0.715016 0.807055
vt 0.716080 0.808041
vt 0.717199 0.808964
vt 0.718370 0.809823
vt 0.719587 0.810612
vt 0.720848 0.811331
vt 0.722147 0.811977
vt 0.723483 0.812547
vt 0.724848 0.813040
vt 0.726239 0.813455
vt 0.727651 0.813790
vt 0.729080 0.814046
vt 0.730521 0.814219
vt 0.731968 0.814312
vt 0.733420 0.814324
vt 0.734871 0.814255
vt 0.736314 0.814105
vt 0.709347 0.798702
vt 0.736449 0.774880
vt 0.738711 0.797328
vt 0.742582 0.787056
vt 0.743770 0.784006
vt 0.740256 0.789359
vt 0.737195 0.790520
vt 0.733929 0.790333
vt 0.731018 0.788833
vt 0.728971 0.786279
vt 0.728138 0.783115
vt 0.728665 0.779883
vt 0.730460 0.777147
vt 0.733214 0.775377
vt 0.739608 0.775742
vt 0.742142 0.777814
vt 0.743613 0.780737
vt 0.863134 0.262640
vt 0.752266 0.756969
vt 0.895814 0.262640
vn -0.000000 -1.000000 -0.000000
vn 0.000009 -1.000000 -0.000004
vn 0.000010 -1.000000 -0.000002
vn 0.000008 -1.000000 -0.000006
vn 0.000007 -1.000000 -0.000008
vn 0.000005 -1.000000 -0.000009
vn 0.000003 -1.000000 -0.000010
vn 0.000001 -1.000000 -0.000010
vn -0.000001 -1.000000 -0.000010
vn -0.000003 -1.000000 -0.000010
vn -0.000005 -1.000000 -0.000009
vn -0.000007 -1.000000 -0.000007
vn -0.000008 -1.000000 -0.000006
vn -0.000009 -1.000000 -0.000004
vn -0.000010 -1.000000 -0.000002
vn -0.000010 -1.000000 -0.000000
vn -0.000010 -1.000000 0.000002
vn -0.000009 -1.000000 0.000004
vn -0.000008 -1.000000 0.000006
vn -0.000007 -1.000000 0.000007
vn -0.000005 -1.000000 0.000009
vn -0.000003 -1.000000 0.000010
vn -0.000001 -1.000000 0.000010
vn 0.000001 -1.000000 0.000010
vn 0.000003 -1.000000 0.000010
vn 0.000005 -1.000000 0.000009
vn 0.000007 -1.000000 0.000007
vn 0.000008 -1.000000 0.000006
vn 0.000009 -1.000000 0.000004
vn 0.000010 -1.000000 0.000002
vn 0.000010 -1.000000 -0.000000
vn 0.000000 1.000000 0.000000
vn 0.000000 1.000000 0.000000
vn 0.000000 1.000000 0.000000
vn 0.000000 1.000000 0.000000
vn 0.000000 1.000000 0.000000
vn 0.000000 1.000000 0.000000
vn 0.000000 1.000000 0.000000
vn 0.000000 1.000000 0.000000
vn 0.000000 1.000000 0.000000
vn 0.000000 1.000000 0.000000
vn 0.000000 1.000000 0.000000
vn 0.000000 1.000000 0.000000
vn 0.000000 1.000000 0.000000
vn 0.000000 1.000000 0.000000
vn 0.000000 1.000000 0.000000
vn 0.000000 1.000000 0.000000
vn 0.000000 1.000000 0.000000
vn 0.000000 1.000000 0.000000
vn 0.000000 1.000000 0.000000
vn 0.000000 1.000000 0.000000
vn 0.000000 1.000000 0.000000
vn 0.000000 1.000000 0.000000
vn 0.000000 1.000000 0.000000
vn 0.000000 1.000000 0.000000
vn 0.000000 1.000000 0.000000
vn 0.000000 1.000000 0.000000
vn 0.000000 1.000000 0.000000
vn 0.000000 1.000000 0.000000
vn 0.000000 1.000000 0.000000
vn 0.000000 1.000000 0.000000
vn 0.000000 1.000000 0.000000
vn 0.000000 1.000000 0.000000
vn 0.000000 1.000000 -0.000000
vn 0.000000 1.000000 -0.000000
vn 0.000000 1.000000 -0.000000
vn 0.000000 1.000000 -0.000000
vn 0.000000 1.000000 0.000000
vn 0.000000 1.000000 0.000000
vn 0.000000 1.000000 0.000000
vn 0.000000 1.000000 0.000000
vn 0.000000 1.000000 -0.000000
vn 0.000000 1.000000 -0.000000
vn 0.000000 1.000000 0.000000
vn 0.000000 1.000000 0.000000
vn 0.000000 1.000000 -0.000000
vn 0.000000 1.000000 -0.000000
vn 0.000000 1.000000 -0.000000
vn 0.000000 1.000000 -0.000000
vn 0.000000 1.000000 0.000000
vn 0.000000 1.000000 0.000000
vn 0.000000 1.000000 0.000000
vn 0.000000 1.000000 0.000000
vn 0.000000 1.000000 -0.000000
vn 0.000000 1.000000 -0.000000
vn 0.000000 1.000000 -0.000000
vn 0.000000 1.000000 -0.000000
vn 0.000000 1.000000 -0.000000
vn 0.000000 1.000000 -0.000000
vn 0.000000 1.000000 -0.000000
vn 0.000000 1.000000 -0.000000
vn 0.902971 0.384457 -0.191930
vn 0.717679 0.679461 -0.152545
vn 0.733711 0.679462 0.000002
vn 0.923143 0.384458 0.000002
vn 0.372569 0.924620 -0.079191
vn 0.380892 0.924619 0.000001
vn 0.670279 0.679461 -0.298427
vn 0.347962 0.924619 -0.154923
vn 0.843333 0.384457 -0.375476
vn 0.593584 0.679462 -0.431265
vn 0.308148 0.924619 -0.223883
vn 0.746838 0.384458 -0.542610
vn 0.490948 0.679462 -0.545254
vn 0.254867 0.924619 -0.283058
vn 0.617703 0.384458 -0.686029
vn 0.366856 0.679462 -0.635412
vn 0.190446 0.924619 -0.329862
vn 0.461572 0.384458 -0.799465
vn 0.226729 0.679462 -0.697801
vn 0.117702 0.924619 -0.362250
vn 0.285267 0.384457 -0.877961
vn 0.076694 0.679462 -0.729692
vn 0.039814 0.924619 -0.378806
vn 0.096495 0.384458 -0.918086
vn -0.076694 0.679462 -0.729692
vn -0.039814 0.924619 -0.378806
vn -0.096495 0.384458 -0.918086
vn -0.226729 0.679462 -0.697801
vn -0.117702 0.924619 -0.362250
vn -0.285267 0.384457 -0.877961
vn -0.366855 0.679462 -0.635413
vn -0.190446 0.924619 -0.329862
vn -0.461571 0.384457 -0.799465
vn -0.490949 0.679461 -0.545254
vn -0.254867 0.924620 -0.283058
vn -0.617703 0.384457 -0.686029
vn -0.593585 0.679462 -0.431264
vn -0.308149 0.924619 -0.223883
vn -0.746838 0.384458 -0.542609
vn -0.670278 0.679462 -0.298427
vn -0.347963 0.924619 -0.154923
vn -0.843332 0.384459 -0.375476
vn -0.717677 0.679462 -0.152547
vn -0.372569 0.924619 -0.079192
vn -0.902970 0.384458 -0.191932
vn -0.733711 0.679462 0.000000
vn -0.380892 0.924620 0.000000
vn -0.923143 0.384457 0.000000
vn -0.717677 0.679462 0.152548
vn -0.372569 0.924619 0.079192
vn -0.902970 0.384458 0.191933
vn -0.670278 0.679462 0.298427
vn -0.347963 0.924619 0.154923
vn -0.843333 0.384458 0.375476
vn -0.593585 0.679462 0.431264
vn -0.308149 0.924619 0.223883
vn -0.746838 0.384457 0.542610
vn -0.490949 0.679462 0.545253
vn -0.254867 0.924619 0.283058
vn -0.617703 0.384457 0.686029
vn -0.366856 0.679462 0.635412
vn -0.190446 0.924620 0.329862
vn -0.461572 0.384457 0.799465
vn -0.226729 0.679462 0.697801
vn -0.117702 0.924620 0.362250
vn -0.285267 0.384457 0.877961
vn -0.076693 0.679462 0.729692
vn -0.039814 0.924620 0.378805
vn -0.096494 0.384457 0.918086
vn 0.076694 0.679462 0.729692
vn 0.039814 0.924620 0.378805
vn 0.096495 0.384456 0.918086
vn 0.226729 0.679462 0.697800
vn 0.117702 0.924620 0.362250
vn 0.285267 0.384457 0.877961
vn 0.366856 0.679462 0.635412
vn 0.190446 0.924620 0.329862
vn 0.461572 0.384458 0.799465
vn 0.490949 0.679462 0.545253
vn 0.254867 0.924620 0.283058
vn 0.617703 0.384458 0.686028
vn 0.593585 0.679462 0.431265
vn 0.308148 0.924620 0.223883
vn 0.746838 0.384457 0.542610
vn 0.670278 0.679462 0.298427
vn 0.347962 0.924620 0.154923
vn 0.843333 0.384457 0.375476
vn 0.717678 0.679462 0.152547
vn 0.372569 0.924619 0.079192
vn 0.902970 0.384457 0.191932
vn 0.000000 1.000000 -0.000001
vn 0.000000 1.000000 -0.000001
vn 0.000000 1.000000 -0.000001
vn 0.000000 1.000000 0.000000
vn 0.000000 1.000000 -0.000004
vn 0.000000 1.000000 -0.000004
vn 0.000000 1.000000 0.000003
vn 0.000000 1.000000 -0.000001
vn 0.000000 1.000000 -0.000004
vn 0.000000 1.000000 0.000000
vn 0.000000 1.000000 0.000000
vn 0.000000 1.000000 0.000000
vn 0.000000 1.000000 -0.000004
vn 0.000000 1.000000 -0.000005
vn 0.000000 1.000000 0.000003
vn 0.000000 1.000000 0.000004
vn 0.942493 0.266063 -0.202280
vn 0.961098 0.271609 -0.050201
vn 0.961902 0.267117 0.058241
vn 0.943227 0.266060 0.198834
vn 0.898536 0.271882 0.344547
vn 0.855058 0.267597 0.444149
vn 0.780706 0.266820 0.565071
vn 0.680730 0.272865 0.679817
vn 0.599791 0.268681 0.753698
vn 0.482902 0.268074 0.833632
vn 0.345485 0.274260 0.897453
vn 0.241517 0.270201 0.932020
vn 0.102637 0.269716 0.957454
vn -0.049607 0.275976 0.959884
vn -0.158840 0.271923 0.949119
vn -0.295984 0.271368 0.915834
vn -0.435883 0.277572 0.856131
vn -0.530460 0.273525 0.802369
vn -0.642400 0.272883 0.716140
vn -0.746213 0.278943 0.604448
vn -0.810808 0.274743 0.516824
vn -0.878136 0.273889 0.392251
vn -0.927374 0.279681 0.248505
vn -0.950702 0.275314 0.142714
vn -0.961651 0.274269 0.001770
vn -0.948289 0.279785 -0.149893
vn -0.926629 0.275191 -0.256181
vn -0.879562 0.273896 -0.389038
vn -0.805152 0.279193 -0.523242
vn -0.742501 0.274450 -0.611039
vn -0.645010 0.272897 -0.713785
vn -0.522600 0.277956 -0.805997
vn -0.429930 0.273079 -0.860575
vn -0.299312 0.271387 -0.914747
vn -0.149580 0.276374 -0.949338
vn -0.043103 0.271467 -0.961482
vn 0.099111 0.269736 -0.957820
vn 0.249173 0.274675 -0.928691
vn 0.352026 0.269724 -0.896285
vn 0.479827 0.268091 -0.835400
vn 0.605442 0.273177 -0.747539
vn 0.686401 0.268321 -0.675912
vn 0.778611 0.266831 -0.567948
vn 0.857423 0.272085 -0.436802
vn 0.902426 0.267355 -0.337860
s 1
g pCylinder2
f 31/1/1 2/2/2 1/3/3
f 31/1/1 3/4/4 2/2/2
f 31/1/1 4/5/5 3/4/4
f 31/1/1 5/6/6 4/5/5
f 31/1/1 6/7/7 5/6/6
f 31/1/1 7/8/8 6/7/7
f 31/1/1 8/9/9 7/8/8
f 31/1/1 9/10/10 8/9/9
f 31/1/1 10/11/11 9/10/10
f 31/1/1 11/12/12 10/11/11
f 31/1/1 12/13/13 11/12/12
f 31/1/1 13/14/14 12/13/13
f 31/1/1 14/15/15 13/14/14
f 31/1/1 15/16/16 14/15/15
f 31/1/1 16/17/17 15/16/16
f 31/1/1 17/18/18 16/17/17
f 31/1/1 18/19/19 17/18/18
f 31/1/1 19/20/20 18/19/19
f 31/1/1 20/21/21 19/20/20
f 31/1/1 21/22/22 20/21/21
f 31/1/1 22/23/23 21/22/22
f 31/1/1 23/24/24 22/23/23
f 31/1/1 24/25/25 23/24/24
f 31/1/1 25/26/26 24/25/25
f 31/1/1 26/27/27 25/26/26
f 31/1/1 27/28/28 26/27/27
f 31/1/1 28/29/29 27/28/28
f 31/1/1 29/30/30 28/29/29
f 31/1/1 30/31/31 29/30/30
f 31/1/1 1/3/3 30/31/31
s 2
f 33/32/32 35/33/33 92/34/34 93/35/35
f 35/33/33 37/36/36 121/37/37 92/34/34
f 37/36/36 39/38/38 120/39/39 121/37/37
f 39/38/38 41/40/40 119/41/41 120/39/39
f 41/40/40 43/42/42 118/43/43 119/41/41
f 43/42/42 45/44/44 117/45/45 118/43/43
f 45/44/44 47/46/46 116/47/47 117/45/45
f 47/46/46 49/48/48 115/49/49 116/47/47
f 49/48/48 51/50/50 114/51/51 115/49/49
f 51/50/50 53/52/52 113/53/53 114/51/51
f 53/52/52 55/54/54 112/55/55 113/53/53
f 55/54/54 57/56/56 111/57/57 112/55/55
f 57/56/56 59/58/58 110/59/59 111/57/57
f 59/58/58 61/60/60 109/61/61 110/59/59
f 61/60/60 63/62/62 108/63/63 109/61/61
f 63/62/62 65/64/64 107/65/65 108/63/63
f 65/64/64 67/66/66 106/67/67 107/65/65
f 67/66/66 69/68/68 105/69/69 106/67/67
f 69/68/68 71/70/70 104/71/71 105/69/69
f 71/70/70 73/72/72 103/73/73 104/71/71
f 73/72/72 75/74/74 102/75/75 103/73/73
f 75/74/74 77/76/76 101/77/77 102/75/75
f 77/76/76 79/78/78 100/79/79 101/77/77
f 79/78/78 81/80/80 99/81/81 100/79/79
f 81/80/80 83/82/82 98/83/83 99/81/81
f 83/82/82 85/84/84 97/85/85 98/83/83
f 85/84/84 87/86/86 96/87/87 97/85/85
f 87/86/86 89/88/88 95/89/89 96/87/87
f 89/88/88 91/90/90 94/91/91 95/89/89
f 91/90/90 33/32/32 93/35/35 94/91/91
s 3
f 1/173/92 32/92/93 90/93/94 30/172/95
f 32/92/93 33/171/96 91/138/97 90/93/94
f 33/171/96 32/92/93 34/94/98 35/170/99
f 32/92/93 1/173/92 2/200/100 34/94/98
f 35/170/99 34/94/98 36/165/101 37/169/102
f 34/94/98 2/200/100 3/166/103 36/165/101
f 37/168/102 36/95/101 38/96/104 39/164/105
f 36/95/101 3/167/103 4/199/106 38/96/104
f 39/164/105 38/96/104 40/97/107 41/163/108
f 38/96/104 4/199/106 5/198/109 40/97/107
f 41/163/108 40/97/107 42/98/110 43/162/111
f 40/97/107 5/198/109 6/197/112 42/98/110
f 43/162/111 42/98/110 44/99/113 45/161/114
f 42/98/110 6/197/112 7/196/115 44/99/113
f 45/161/114 44/99/113 46/100/116 47/160/117
f 44/99/113 7/196/115 8/195/118 46/100/116
f 47/160/117 46/100/116 48/101/119 49/159/120
f 46/100/116 8/195/118 9/194/121 48/101/119
f 49/159/120 48/101/119 50/102/122 51/158/123
f 48/101/119 9/194/121 10/193/124 50/102/122
f 51/158/123 50/102/122 52/103/125 53/157/126
f 50/102/122 10/193/124 11/192/127 52/103/125
f 53/157/126 52/103/125 54/104/128 55/156/129
f 52/103/125 11/192/127 12/191/130 54/104/128
f 55/156/129 54/104/128 56/105/131 57/155/132
f 54/104/128 12/191/130 13/190/133 56/105/131
f 57/155/132 56/105/131 58/106/134 59/154/135
f 56/105/131 13/190/133 14/189/136 58/106/134
f 59/154/135 58/106/134 60/248/137 61/250/138
f 58/106/134 14/189/136 15/188/139 60/248/137
f 61/153/138 60/107/137 62/108/140 63/152/141
f 60/107/137 15/249/139 16/187/142 62/108/140
f 63/152/141 62/108/140 64/109/143 65/151/144
f 62/108/140 16/187/142 17/186/145 64/109/143
f 65/151/144 64/109/143 66/110/146 67/150/147
f 64/109/143 17/186/145 18/185/148 66/110/146
f 67/150/147 66/110/146 68/111/149 69/149/150
f 66/110/146 18/185/148 19/184/151 68/111/149
f 69/149/150 68/111/149 70/112/152 71/148/153
f 68/111/149 19/184/151 20/183/154 70/112/152
f 71/148/153 70/112/152 72/113/155 73/147/156
f 70/112/152 20/183/154 21/182/157 72/113/155
f 73/147/156 72/113/155 74/114/158 75/146/159
f 72/113/155 21/182/157 22/181/160 74/114/158
f 75/146/159 74/114/158 76/115/161 77/145/162
f 74/114/158 22/181/160 23/180/163 76/115/161
f 77/145/162 76/115/161 78/116/164 79/144/165
f 76/115/161 23/180/163 24/179/166 78/116/164
f 79/144/165 78/116/164 80/117/167 81/143/168
f 78/116/164 24/179/166 25/178/169 80/117/167
f 81/143/168 80/117/167 82/118/170 83/142/171
f 80/117/167 25/178/169 26/177/172 82/118/170
f 83/142/171 82/118/170 84/119/173 85/141/174
f 82/118/170 26/177/172 27/176/175 84/119/173
f 85/141/174 84/119/173 86/120/176 87/140/177
f 84/119/173 27/176/175 28/175/178 86/120/176
f 87/140/177 86/120/176 88/121/179 89/139/180
f 86/120/176 28/175/178 29/174/181 88/121/179
f 89/139/180 88/121/179 90/93/94 91/138/97
f 88/121/179 29/174/181 30/172/95 90/93/94
s 4
f 122/235/182 123/123/183 124/247/184
f 123/123/183 125/246/185 124/247/184
f 123/123/183 126/245/186 125/246/185
f 123/123/183 127/232/187 126/245/186
f 123/123/183 128/244/188 127/232/187
f 123/123/183 129/243/189 128/244/188
f 123/123/183 130/242/190 129/243/189
f 123/123/183 131/241/191 130/242/190
f 123/123/183 132/240/192 131/241/191
f 123/123/183 133/239/193 132/240/192
f 123/123/183 134/238/194 133/239/193
f 123/123/183 135/237/195 134/238/194
f 123/123/183 136/236/196 135/237/195
f 123/123/183 137/234/197 136/236/196
f 123/123/183 122/235/182 137/234/197
s 5
f 93/201/198 124/124/199 94/202/200
f 95/203/201 125/125/202 96/204/203
f 97/205/204 126/126/205 98/206/206
f 99/231/207 127/127/208 100/208/209
f 101/209/210 128/128/211 102/210/212
f 103/211/213 129/129/214 104/212/215
f 105/213/216 130/130/217 106/214/218
f 107/215/219 131/131/220 108/216/221
f 109/217/222 132/132/223 110/218/224
f 111/219/225 133/133/226 112/220/227
f 113/221/228 134/134/229 114/222/230
f 115/223/231 135/135/232 116/224/233
f 117/225/234 136/136/235 118/226/236
f 119/227/237 137/137/238 120/228/239
f 121/229/240 122/122/241 92/230/242
f 131/131/220 132/132/223 109/217/222 108/216/221
f 130/130/217 131/131/220 107/215/219 106/214/218
f 129/129/214 130/130/217 105/213/216 104/212/215
f 128/128/211 129/129/214 103/211/213 102/210/212
f 127/127/208 128/128/211 101/209/210 100/208/209
f 126/126/205 127/233/208 99/207/207 98/206/206
f 125/125/202 126/126/205 97/205/204 96/204/203
f 124/124/199 125/125/202 95/203/201 94/202/200
f 122/122/241 124/124/199 93/201/198 92/230/242
f 137/137/238 122/122/241 121/229/240 120/228/239
f 136/136/235 137/137/238 119/227/237 118/226/236
f 135/135/232 136/136/235 117/225/234 116/224/233
f 134/134/229 135/135/232 115/223/231 114/222/230
f 133/133/226 134/134/229 113/221/228 112/220/227
f 132/132/223 133/133/226 111/219/225 110/218/224
